<?xml version="1.0" encoding="utf-8"?>
<svg xmlns="http://www.w3.org/2000/svg" viewBox="0 0 90 90"><defs><style>.cls-1{fill:none;}.cls-2{fill:#8d8e8d;}.cls-3{fill:#fff;}.cls-4{fill:#a83540;}</style></defs><title>Anson-Application</title><g id="Calque_2" data-name="Calque 2"><g id="Calque_1-2" data-name="Calque 1"><rect class="cls-1" width="90" height="90"/></g><g id="Icons_Mainpage" data-name="Icons Mainpage"><g id="_Groupe_" data-name="&lt;Groupe&gt;"><path class="cls-2" d="M78.93,32.65a2.87,2.87,0,0,1,1.73,4.18c-1.91,4.67-10.75,26.35-12.31,30a4.5,4.5,0,0,1-1.49,1.78A4.2,4.2,0,0,0,65,72.77c.16,2.46,0,4.94,0,7.41,0,1.36-.3,1.66-1.64,1.66H9a1.66,1.66,0,0,1-1.6-.73v-73H49.9c.32.28.67.54,1,.84,4.47,4.46,8.92,8.93,13.4,13.37a2.5,2.5,0,0,1,.82,2c0,6.84,0,13.68,0,20.52v.75l.13,0,.27-.6c1.68-4.09,3.34-8.16,5-12.24.83-2.06,2.24-2.66,4.31-1.81C76.18,31.53,77.56,32.08,78.93,32.65Zm-.18,3.05c.2-.49,0-.77-.49-1L73.7,32.87a.69.69,0,0,0-1,.41c-.66,1.58-1.29,3.14-2,4.82l6.08,2.48C77.44,38.92,78.1,37.31,78.75,35.7Zm-2.82,6.92c-2-.82-4-1.64-6.08-2.5C66.73,47.75,63.64,55.31,60.51,63l6.06,2.48C66.68,65.19,74.93,45.06,75.93,42.62ZM62.87,50.84q0-12.71,0-25.41c0-.2,0-.42,0-.71H50.08c-1.27,0-1.6-.32-1.6-1.61V10.39H9.63v3c0,.6,0,1.3,0,2v2.09c0,1,0,1.95,0,2.78V79.62h53.2V72.39c-.68.61-1.3,1.19-1.93,1.75-.47.42-.9,1-1.67.72s-.72-1-.75-1.69c-.15-2.81-.31-5.61-.43-8.41,0-.29,0-.58,0-.87a3.32,3.32,0,0,1,.29-1.3c1.44-3.56,2.91-7.09,4.35-10.65A3.22,3.22,0,0,0,62.87,50.84ZM60.58,71.46l4.6-4.23-4.93-2C60.36,67.35,60.47,69.32,60.58,71.46Zm-9.83-49H61.14Q55.92,17.3,50.75,12.12Z"/><path class="cls-3" d="M78.26,34.75c.46.18.69.46.49,1-.65,1.61-1.31,3.22-2,4.88L70.68,38.1c.69-1.68,1.32-3.24,2-4.82a.69.69,0,0,1,1-.41Z"/><path class="cls-3" d="M69.85,40.12c2.08.86,4.06,1.68,6.08,2.5-1,2.44-9.25,22.57-9.36,22.81L60.51,63C63.64,55.31,66.73,47.75,69.85,40.12Z"/><path class="cls-3" d="M62.89,25.43q0,12.7,0,25.41a3.22,3.22,0,0,1-.22,1.1C61.21,55.5,59.74,59,58.3,62.59a3.32,3.32,0,0,0-.29,1.3c0,.29,0,.58,0,.87l-1.43.06v0a1.08,1.08,0,0,0-.13-.49.3.3,0,0,0-.07-.11.66.66,0,0,0-.14-.15,1.09,1.09,0,0,0-.17-.13,1.55,1.55,0,0,0-.7-.19H32.67c-.29,0-.65-.07-.84.08s-.71.65-.73,1a1.24,1.24,0,0,0,.42.79l.22.21a.54.54,0,0,0,.19.08,1.42,1.42,0,0,0,.3,0L32.3,69a.7.7,0,0,0-.4.09,2,2,0,0,0-.81.94.67.67,0,0,0,0,.24h-5.4c0-2.25,0-4.52,0-6.77,0-.13,0-.26,0-.37a1.43,1.43,0,0,0-.16-.55c-.2-.37-.6-.51-1.25-.52H16.3a2.06,2.06,0,0,0-1,.18.83.83,0,0,0-.21.16,1.53,1.53,0,0,0-.33,1.13c0,1.54,0,3.08,0,4.62H9.63V10.39H48.48V23.11c0,1.29.33,1.61,1.6,1.61H62.85C62.85,25,62.89,25.23,62.89,25.43ZM56.61,36.07a1.64,1.64,0,0,0,0-.23,1,1,0,0,0-.13-.38l-.07-.08a1,1,0,0,0-.6-.35,4.74,4.74,0,0,0-.93-.07H33.64c-.46,0-.91,0-1.37,0-.78,0-1.24.47-1.22,1.12a.93.93,0,0,0,.32.74,1.19,1.19,0,0,0,.62.28l.27,0H54.85a6.06,6.06,0,0,0,.85,0,1,1,0,0,0,.77-.49A1.11,1.11,0,0,0,56.61,36.07Zm-.06,14.48a.63.63,0,0,0-.06-.32,1.46,1.46,0,0,0-.14-.28l-.09-.13a.58.58,0,0,0-.1-.12,1.42,1.42,0,0,0-.2-.22h0a.35.35,0,0,0-.26-.11.3.3,0,0,0-.16,0,2.54,2.54,0,0,0-.47,0H32.61a3.77,3.77,0,0,0-.58,0,.69.69,0,0,0-.2,0,1,1,0,0,0-.33.15,1.07,1.07,0,0,0-.25.22.67.67,0,0,0-.14.28,1,1,0,0,0-.05.5,1,1,0,0,0,.93.93,5.17,5.17,0,0,0,.79,0H54.94a4.32,4.32,0,0,0,.62,0,.34.34,0,0,0,.15-.06c.17-.12.37-.27.53-.41a1.44,1.44,0,0,0,.21-.24h0A.66.66,0,0,0,56.55,50.55ZM52,41.37v-.12a1.24,1.24,0,0,0-.09-.39.68.68,0,0,0-.18-.29.84.84,0,0,0-.3-.22,1.48,1.48,0,0,0-.39-.11.41.41,0,0,0-.11,0H32.16a.47.47,0,0,0-.17,0,1,1,0,0,0-.93,1,.94.94,0,0,0,.31.89,1.08,1.08,0,0,0,.29.18l.17.06a3,3,0,0,0,.79.07H50.47a4.52,4.52,0,0,0,.53,0l.19,0,.17-.07a.93.93,0,0,0,.63-.75A.88.88,0,0,0,52,41.37ZM44.19,22.19a1,1,0,0,0,.74-1.1,1,1,0,0,0-.23-.59,1.23,1.23,0,0,0-.57-.33h0a2.29,2.29,0,0,0-.55-.07H37.12c-2.21,0-4.41,0-6.61,0-.91,0-1.45.6-1.26,1.32a1.12,1.12,0,0,0,1.26.85H43.65A1.53,1.53,0,0,0,44.19,22.19Zm-4,33.5c0-.63-.47-1.07-1.26-1.08-1.1,0-2.2,0-3.3,0s-2.21,0-3.3,0c-.83,0-1.28.38-1.3,1a1,1,0,0,0,.33.84,1.23,1.23,0,0,0,.41.22,1.49,1.49,0,0,0,.54.09h6.61a.44.44,0,0,0,.16,0,.25.25,0,0,0,.12,0,1.56,1.56,0,0,0,.46-.16A1,1,0,0,0,40.21,55.69ZM27.29,47.51a1.09,1.09,0,0,0,0-1.32.65.65,0,0,0-.17-.16,1.16,1.16,0,0,0-.51-.21,1,1,0,0,0-1,.37,4.41,4.41,0,0,0-.67.84h0a1.83,1.83,0,0,1-.23.29,1,1,0,0,1-.31.2,1.37,1.37,0,0,1-.29.07.52.52,0,0,1-.18,0h-.25c-.33,0-.66,0-1,0-2.11,0-4.23,0-6.34,0-1.13,0-1.52.37-1.53,1.5V56.9a1.78,1.78,0,0,0,.34,1.25,1.12,1.12,0,0,0,.33.22,2.89,2.89,0,0,0,.92.12h7.69l.41,0a1.82,1.82,0,0,0,.35-.06c.62-.15.81-.6.82-1.52V55.64c0-1.79,0-3.57,0-5.36a1.73,1.73,0,0,1,.12-.6,2.47,2.47,0,0,1,.29-.56C26.44,48.55,26.91,48.07,27.29,47.51Zm0-14.32a1.08,1.08,0,0,0-.18-1.54,1.11,1.11,0,0,0-1.54.23,4.52,4.52,0,0,0-.62.78,1.23,1.23,0,0,1-1.25.61c-2.48,0-4.94,0-7.41,0-1.06,0-1.45.38-1.45,1.42q0,4,0,8c0,1,.4,1.43,1.45,1.44h7.4c1.79,0,2-.2,2-2,0-2,0-4,0-6a2.12,2.12,0,0,1,.56-1.57A15.49,15.49,0,0,0,27.26,33.19Z"/><path class="cls-3" d="M62.83,72.39v7.23H9.63V68.09h5.16c0,1.1,0,2.19,0,3.29a1.6,1.6,0,0,0,.33,1.14,1.28,1.28,0,0,0,.78.31l.38,0q4,0,7.91,0c.68,0,1.08-.15,1.28-.51a1.38,1.38,0,0,0,.15-.55c0-.11,0-.24,0-.37,0-.4,0-.81,0-1.21h5.4a.78.78,0,0,0,.12.4.62.62,0,0,0,.09.12,1.5,1.5,0,0,0,.24.2.9.9,0,0,0,.3.12l.15,0a3.31,3.31,0,0,0,.7.06H51.84l.36,0a1.06,1.06,0,0,0,.66-.35,1,1,0,0,0,.23-.76,1,1,0,0,0-.94-1,6.85,6.85,0,0,0-.79,0H32.74l-.44,0-.07-3.06H55.38a1.28,1.28,0,0,0,1-.45A1.05,1.05,0,0,0,56.6,65a1.64,1.64,0,0,0,0-.22l1.43-.06c.12,2.8.28,5.6.43,8.41,0,.64-.08,1.4.75,1.69s1.2-.3,1.67-.72C61.53,73.58,62.15,73,62.83,72.39Z"/><path class="cls-3" d="M65.18,67.23l-4.6,4.23c-.11-2.14-.22-4.11-.33-6.23Z"/><path class="cls-3" d="M61.14,22.49H50.75V12.12Q55.93,17.31,61.14,22.49Z"/><path class="cls-2" d="M56.62,64.78v0a1.64,1.64,0,0,1,0,.22,1.13,1.13,0,0,1-.17.39,1.28,1.28,0,0,1-1,.45H32.23a1.42,1.42,0,0,1-.3,0,.48.48,0,0,1-.19-.09l-.22-.2a1.24,1.24,0,0,1-.42-.79c0-.35.41-.74.73-1s.55-.08.84-.08H55.41a1.55,1.55,0,0,1,.7.19,1.09,1.09,0,0,1,.17.13.66.66,0,0,1,.14.15.41.41,0,0,1,.07.11A1.08,1.08,0,0,1,56.62,64.78Z"/><path class="cls-2" d="M56.59,35.84a1.69,1.69,0,0,1,0,.23,1,1,0,0,1-.13.54,1,1,0,0,1-.77.49,6.06,6.06,0,0,1-.85,0H32.26l-.27,0a1.23,1.23,0,0,1-.62-.28.93.93,0,0,1-.32-.74c0-.65.44-1.08,1.22-1.12.46,0,.91,0,1.37,0H54.86a4.74,4.74,0,0,1,.93.07,1,1,0,0,1,.6.35.5.5,0,0,1,.07.08A1,1,0,0,1,56.59,35.84Z"/><path class="cls-2" d="M56.49,50.23a.63.63,0,0,1,.06.32.66.66,0,0,1-.1.25h0c-.06.08-.13.15-.21.24s-.36.29-.53.41a.34.34,0,0,1-.15.06,4.32,4.32,0,0,1-.62,0H32.78a5.17,5.17,0,0,1-.79,0,1,1,0,0,1-.93-.93,1,1,0,0,1,.05-.5.67.67,0,0,1,.14-.28,1.07,1.07,0,0,1,.25-.22,1.42,1.42,0,0,1,.33-.14.71.71,0,0,1,.2,0,3.77,3.77,0,0,1,.58,0H55.06a3.76,3.76,0,0,1,.47,0l.16,0a.35.35,0,0,1,.26.11h0a1.42,1.42,0,0,1,.2.22.58.58,0,0,1,.1.12l.09.13A1.46,1.46,0,0,1,56.49,50.23Z"/><path class="cls-2" d="M56.35,50a1.46,1.46,0,0,1,.14.28A1.46,1.46,0,0,0,56.35,50Z"/><path class="cls-2" d="M56.11,63.9a1.09,1.09,0,0,1,.17.13A1.09,1.09,0,0,0,56.11,63.9Z"/><path class="cls-2" d="M56.26,49.82a.58.58,0,0,0-.1-.12A.58.58,0,0,1,56.26,49.82Z"/><polygon class="cls-2" points="55.96 49.48 55.96 49.48 55.95 49.48 55.96 49.48"/><path class="cls-2" d="M55.69,49.37l-.16,0A.3.3,0,0,1,55.69,49.37Z"/><path class="cls-2" d="M55.53,49.35a3.76,3.76,0,0,0-.47,0h0A2.54,2.54,0,0,1,55.53,49.35Z"/><path class="cls-2" d="M53.09,70a1,1,0,0,1-.23.76,1.13,1.13,0,0,1-.67.34,2,2,0,0,1-.35.05H32.65a3.31,3.31,0,0,1-.7-.06l-.15,0a2.08,2.08,0,0,1-.3-.12,1.5,1.5,0,0,1-.24-.2.62.62,0,0,1-.09-.12.78.78,0,0,1-.12-.4.67.67,0,0,1,0-.24A2,2,0,0,1,31.9,69a.7.7,0,0,1,.4-.09l.44,0H51.36a6.85,6.85,0,0,1,.79,0A1,1,0,0,1,53.09,70Z"/><path class="cls-2" d="M52.86,70.76a1.06,1.06,0,0,1-.66.35l-.36,0a2,2,0,0,0,.35-.05A1.13,1.13,0,0,0,52.86,70.76Z"/><path class="cls-2" d="M52,41.25v.12a.88.88,0,0,1,0,.17.93.93,0,0,1-.63.75l-.18.06a.52.52,0,0,1-.18,0,4.52,4.52,0,0,1-.53,0H32.62a3,3,0,0,1-.79-.07l-.17-.06a1.19,1.19,0,0,1-.29-.18.94.94,0,0,1-.31-.89,1,1,0,0,1,.93-1,.47.47,0,0,1,.17,0h18.9a1.74,1.74,0,0,1,.38.1.84.84,0,0,1,.3.22,1,1,0,0,1,.18.29A1.24,1.24,0,0,1,52,41.25Z"/><path class="cls-2" d="M51.74,40.57a.68.68,0,0,1,.18.29A1,1,0,0,0,51.74,40.57Z"/><path class="cls-2" d="M50.7,40.23h0Z"/><path class="cls-2" d="M44.93,21.09a1,1,0,0,1-.74,1.1,1.8,1.8,0,0,1-.54.08H30.51a1.12,1.12,0,0,1-1.26-.85c-.19-.72.35-1.32,1.26-1.32,2.2,0,4.4,0,6.61,0h6.45a2.34,2.34,0,0,1,.56.06h0a1.23,1.23,0,0,1,.57.33A1,1,0,0,1,44.93,21.09Z"/><path class="cls-2" d="M44.13,20.17a1.23,1.23,0,0,1,.57.33A1.23,1.23,0,0,0,44.13,20.17Z"/><path class="cls-2" d="M43.65,22.27a1.8,1.8,0,0,0,.54-.08,1.53,1.53,0,0,1-.54.09h0Z"/><path class="cls-2" d="M43.58,20.1a2.29,2.29,0,0,1,.55.07,2.34,2.34,0,0,0-.56-.06h0Z"/><path class="cls-2" d="M39,54.61c.79,0,1.27.45,1.26,1.08a1,1,0,0,1-.53.91,1.56,1.56,0,0,1-.46.16.25.25,0,0,1-.12,0H32.32a1.69,1.69,0,0,1-.53-.08,1.23,1.23,0,0,1-.41-.22,1,1,0,0,1-.33-.84c0-.65.47-1,1.3-1,1.09,0,2.19,0,3.3,0S37.85,54.59,39,54.61Z"/><path class="cls-2" d="M39.68,56.6a1.56,1.56,0,0,1-.46.16A1.56,1.56,0,0,0,39.68,56.6Z"/><path class="cls-2" d="M39.1,56.77a.44.44,0,0,1-.16,0h.16Z"/><path class="cls-2" d="M35.63,56.79h-3.3a1.49,1.49,0,0,1-.54-.09,1.69,1.69,0,0,0,.53.08Z"/><path class="cls-2" d="M32.34,40.23h0Z"/><path class="cls-2" d="M32,49.37a.71.71,0,0,0-.2,0,1.42,1.42,0,0,0-.33.14,1,1,0,0,1,.33-.15A.69.69,0,0,1,32,49.37Z"/><path class="cls-2" d="M32,71.1l-.15,0a.9.9,0,0,1-.3-.12,2.08,2.08,0,0,0,.3.12Z"/><path class="cls-2" d="M31.38,56.48a1.23,1.23,0,0,0,.41.22A1.23,1.23,0,0,1,31.38,56.48Z"/><path class="cls-2" d="M31.37,36.82a1.23,1.23,0,0,0,.62.28A1.19,1.19,0,0,1,31.37,36.82Z"/><path class="cls-2" d="M31.37,42.09a1.19,1.19,0,0,0,.29.18A1.08,1.08,0,0,1,31.37,42.09Z"/><path class="cls-2" d="M31.17,70.62a.62.62,0,0,0,.09.12A.62.62,0,0,1,31.17,70.62Z"/><path class="cls-2" d="M31.25,49.77a.67.67,0,0,0-.14.28A.67.67,0,0,1,31.25,49.77Z"/><path class="cls-2" d="M27.26,46.19a1.09,1.09,0,0,1,0,1.32c-.38.56-.85,1-1.2,1.61a2.47,2.47,0,0,0-.29.56,2.15,2.15,0,0,0-.13.6c0,1.79,0,3.57,0,5.36v1.25c0,.92-.2,1.37-.82,1.52a1.82,1.82,0,0,1-.35.06l-.41,0H16.39a2.89,2.89,0,0,1-.92-.12,1.58,1.58,0,0,1-.33-.22,1.78,1.78,0,0,1-.34-1.25V49.13c0-1.13.4-1.5,1.53-1.5,2.11,0,4.23,0,6.34,0h1a1,1,0,0,0,.25,0,.52.52,0,0,0,.18,0,1.23,1.23,0,0,0,.29-.07,1,1,0,0,0,.31-.2,1.47,1.47,0,0,0,.23-.29h0a4.41,4.41,0,0,1,.67-.84,1,1,0,0,1,1-.37,1.1,1.1,0,0,1,.5.22A.9.9,0,0,1,27.26,46.19Zm-3.87,10v-3.7c-.52.66-.94,1.21-1.39,1.73a1.09,1.09,0,0,1-1.79.1c-.63-.59-1.23-1.21-1.83-1.83a1.14,1.14,0,0,1-.14-1.71c.48-.45,1.07-.4,1.66.14L21,52l1.67-2.14H17v6.35Z"/><path class="cls-2" d="M27.08,31.65a1.08,1.08,0,0,1,.18,1.54,15.49,15.49,0,0,1-1.06,1.36,2.12,2.12,0,0,0-.56,1.57c0,2,0,4,0,6,0,1.76-.21,2-2,2h-7.4c-1.05,0-1.45-.4-1.45-1.44q0-4,0-8c0-1,.39-1.42,1.45-1.42,2.47,0,4.93,0,7.41,0a1.23,1.23,0,0,0,1.25-.61,4.52,4.52,0,0,1,.62-.78A1.11,1.11,0,0,1,27.08,31.65ZM23.39,41.93V38.16c-.52.66-.94,1.21-1.4,1.73a1.06,1.06,0,0,1-1.73.13c-.68-.63-1.35-1.3-2-2a1.11,1.11,0,0,1-.06-1.57,1.09,1.09,0,0,1,1.6,0c.37.35.7.76,1.11,1.2l1.75-2.2H17c0,2,0,4,0,6a.53.53,0,0,0,.37.38C19.36,41.94,21.35,41.93,23.39,41.93Z"/><path class="cls-2" d="M25.8,49.68a1.73,1.73,0,0,0-.12.6c0,1.79,0,3.57,0,5.36,0-1.79,0-3.57,0-5.36A2.15,2.15,0,0,1,25.8,49.68Z"/><path class="cls-2" d="M25.65,63.44c0,2.25,0,4.52,0,6.77,0,.4,0,.81,0,1.21,0,.13,0,.26,0,.37a1.57,1.57,0,0,1-.15.55c-.2.36-.6.5-1.28.51q-3.94,0-7.91,0l-.38,0a1.37,1.37,0,0,1-.78-.31,1.6,1.6,0,0,1-.33-1.14q0-4,0-7.91a1.53,1.53,0,0,1,.33-1.13,1.06,1.06,0,0,1,.21-.16,2.06,2.06,0,0,1,1-.18h7.92c.65,0,1.05.15,1.25.52a1.43,1.43,0,0,1,.16.55C25.64,63.18,25.65,63.31,25.65,63.44ZM23.41,70.6V64.19c-2,0-4,0-6,0-.49,0-.46.29-.46.61V70.6Z"/><path class="cls-2" d="M25.47,62.52a1.43,1.43,0,0,1,.16.55A1.43,1.43,0,0,0,25.47,62.52Z"/><path class="cls-2" d="M25.63,71.79a1.38,1.38,0,0,1-.15.55A1.57,1.57,0,0,0,25.63,71.79Z"/><path class="cls-2" d="M24.93,47a1.47,1.47,0,0,1-.23.29A1.83,1.83,0,0,0,24.93,47Z"/><path class="cls-3" d="M23.41,64.19V70.6H17V64.79c0-.32,0-.61.46-.61C19.41,64.2,21.37,64.19,23.41,64.19Z"/><path class="cls-3" d="M23.39,52.53v3.7H17V49.88h5.64L21,52,19.9,51c-.59-.54-1.18-.59-1.66-.14a1.14,1.14,0,0,0,.14,1.71c.6.62,1.2,1.24,1.83,1.83a1.09,1.09,0,0,0,1.79-.1C22.45,53.74,22.87,53.19,23.39,52.53Z"/><path class="cls-3" d="M23.39,38.16v3.77c-2,0-4,0-6,0a.53.53,0,0,1-.37-.38c0-2,0-4,0-6h5.68l-1.75,2.2c-.41-.44-.74-.85-1.11-1.2a1.09,1.09,0,0,0-1.6,0,1.11,1.11,0,0,0,.06,1.57c.64.67,1.31,1.34,2,2A1.06,1.06,0,0,0,22,39.89C22.45,39.37,22.87,38.82,23.39,38.16Z"/></g><rect class="cls-4" x="64.73" y="28.22" width="11.89" height="37.63" rx="2.83" ry="2.83" transform="translate(23.66 -23.65) rotate(22.73)"/></g></g></svg>