<?xml version="1.0" encoding="utf-8"?>
<svg xmlns="http://www.w3.org/2000/svg" viewBox="0 0 90 90"><defs><style>.cls-1{fill:none;}.cls-2{fill:#8d8e8d;}.cls-3{fill:#fff;}.cls-4{fill:#a83540;}</style></defs><title>Anson-Support</title><g id="Calque_2" data-name="Calque 2"><g id="Calque_1-2" data-name="Calque 1"><rect class="cls-1" width="90" height="90"/></g><g id="Icons_Mainpage" data-name="Icons Mainpage"><path class="cls-2" d="M79.78,42.86A6,6,0,0,1,78.13,52l-.51.28a6.09,6.09,0,0,1-2,9.69,6.11,6.11,0,0,1,1.5,5.37,5.94,5.94,0,0,1-3.37,4.26A18.64,18.64,0,0,1,75,74a5.93,5.93,0,0,1-4.7,7.72,1.93,1.93,0,0,0-.34.11h-44A1.54,1.54,0,0,1,25,80.28q0-18.6,0-37.2h.32a11.22,11.22,0,0,0,1.3,0,1.67,1.67,0,0,0,.32-.08l.44.17V79.45c2.34,0,32.11.06,41.4.06,2.13,0,3.56-1,4-2.78a3.65,3.65,0,0,0-3.14-4.53l-.57-.08a1.15,1.15,0,0,1,.08-2.29c.77-.06,1.54,0,2.3-.06a3.62,3.62,0,0,0,3.36-2.94,3.68,3.68,0,0,0-3.69-4.37c-.6,0-1.2,0-1.8,0a1.16,1.16,0,1,1,0-2.32c1.1,0,2.21-.06,3.31,0a3.71,3.71,0,1,0,0-7.36c-1,.06-2.11,0-3.17,0-.89,0-1.43-.46-1.43-1.17s.52-1.16,1.42-1.17c1.8,0,3.6,0,5.4,0a3.66,3.66,0,0,0,3.92-4,3.56,3.56,0,0,0-3.28-3.33c-.93-.06-1.87,0-2.8,0H71.11v-.23a1.15,1.15,0,0,0,1.12-1.1,3.76,3.76,0,0,0,0-.58v-.47H74.8A6.21,6.21,0,0,1,79.78,42.86Z"/><path class="cls-2" d="M72.26,40.71v.47a3.76,3.76,0,0,1,0,.58,1.15,1.15,0,0,1-1.12,1.1,1.19,1.19,0,0,1-1.17-1,5.22,5.22,0,0,1,0-.79v-.31Z"/><path class="cls-2" d="M14.42,15a1.08,1.08,0,0,0,.76-1.19c-.06-.95,0-1.91,0-2.87A2.54,2.54,0,0,1,18,8.15H69.27c2,0,3,.93,3,3V40.71H69.91V10.49H18.44c-.93,0-.93,0-.93.94,0,1.2,0,2.4,0,3.6a1.55,1.55,0,0,1-1,1.58c-1.29.62-2.57,1.28-3.94,2,1.26.63,2.41,1.27,3.61,1.79a2,2,0,0,1,1.33,2.1c-.05,5.76,0,11.51,0,17.27v1h2.83a7.08,7.08,0,0,1,1.22,0,1.1,1.1,0,0,1,1,1.17,1.08,1.08,0,0,1-1,1.11,11.12,11.12,0,0,1-1.29,0H17.83a2.51,2.51,0,0,1-2.66-2.74c0-2.19,0-4.37,0-6.55,0-3.53,0-7,0-10.58a1,1,0,0,0-.65-1c-1.62-.77-3.22-1.59-4.83-2.38a1.35,1.35,0,0,1-.92-1.18c0-.64.41-1,.94-1.23C11.29,16.6,12.84,15.79,14.42,15Z"/><path class="cls-2" d="M34.27,43.13h-6.9L26.93,43a1.05,1.05,0,0,0,.69-1,1.09,1.09,0,0,0-1-1.17l-.32,0h.33c3.14,0,6.28,0,9.42,0A16.83,16.83,0,0,0,52.21,26.32c.15-1,.21-2.05.28-3.08a6,6,0,0,1,6-5.47,5.89,5.89,0,0,1,5.94,5.49,34.85,34.85,0,0,1-3.24,16.05c-.2.43-.42.86-.68,1.4h9.41V41a5.22,5.22,0,0,0,0,.79,1.19,1.19,0,0,0,1.17,1v.23H58.73c-1.36,0-1.88-.91-1.17-2.06a29.22,29.22,0,0,0,3.16-7.14,35.76,35.76,0,0,0,1.41-10.07,3.66,3.66,0,0,0-7.32-.16,20.29,20.29,0,0,1-1.15,6.55A19,19,0,0,1,39.21,42.69c-.81.18-1.65.25-2.55.39Z"/><path class="cls-3" d="M69.91,11.47V40.71H60.5c.26-.54.48-1,.68-1.4a34.85,34.85,0,0,0,3.24-16,5.89,5.89,0,0,0-5.94-5.49,6,6,0,0,0-6,5.47c-.07,1-.13,2.06-.28,3.08A16.83,16.83,0,0,1,36,40.68c-3.14.08-6.28,0-9.42,0h-.33c-.3,0-.6,0-.9,0H17.51v-1c0-5.76,0-11.51,0-17.27a2,2,0,0,0-1.33-2.1c-1.2-.52-2.35-1.16-3.61-1.79,1.37-.69,2.65-1.35,3.94-2a1.55,1.55,0,0,0,1-1.58c0-1.2,0-2.4,0-3.6,0-.94,0-.94.93-.94H69.91Z"/><path class="cls-2" d="M65.62,76.36a1.14,1.14,0,0,1-2.19-.19,5,5,0,0,1,0-.86V52.46c0-.21,0-.43,0-.65a1.15,1.15,0,0,1,1.14-1.15,1.22,1.22,0,0,1,1.18,1.14c0,.22,0,.43,0,.65v8.81q0,7.09,0,14.18A3.13,3.13,0,0,1,65.62,76.36Z"/><path class="cls-3" d="M27.37,79.45V43.13h6.9l2.39-.05c.9-.14,1.74-.21,2.55-.39A19,19,0,0,0,53.66,30.21a20.29,20.29,0,0,0,1.15-6.55,3.66,3.66,0,0,1,7.32.16,35.76,35.76,0,0,1-1.41,10.07A29.22,29.22,0,0,1,57.56,41c-.71,1.15-.19,2,1.17,2.06h14c.93,0,1.87,0,2.8,0a3.56,3.56,0,0,1,3.28,3.33,3.66,3.66,0,0,1-3.92,4c-1.8,0-3.6,0-5.4,0-.9,0-1.43.46-1.42,1.17s.54,1.16,1.43,1.17c1.06,0,2.12,0,3.17,0a3.71,3.71,0,1,1,0,7.36c-1.1-.06-2.21,0-3.31,0a1.16,1.16,0,1,0,0,2.32c.6,0,1.2,0,1.8,0a3.68,3.68,0,0,1,3.69,4.37,3.62,3.62,0,0,1-3.36,2.94c-.76,0-1.53,0-2.3.06a1.15,1.15,0,0,0-.08,2.29l.57.08a3.65,3.65,0,0,1,3.14,4.53c-.47,1.78-1.9,2.78-4,2.78C59.48,79.51,29.71,79.45,27.37,79.45Zm36-4.14a5,5,0,0,0,0,.86,1.14,1.14,0,0,0,2.19.19,3.13,3.13,0,0,0,.1-.92q0-7.09,0-14.18V52.45c0-.22,0-.43,0-.65a1.22,1.22,0,0,0-1.18-1.14,1.15,1.15,0,0,0-1.14,1.15c0,.22,0,.44,0,.65Z"/><path class="cls-2" d="M26.6,40.76a1.09,1.09,0,0,1,1,1.17,1.05,1.05,0,0,1-.69,1,1.67,1.67,0,0,1-.32.08,11.22,11.22,0,0,1-1.3,0H25v-.79c0-1.06.33-1.49,1.29-1.57Z"/><path class="cls-2" d="M20.28,43.08a11.12,11.12,0,0,0,1.29,0,1.08,1.08,0,0,0,1-1.11,1.1,1.1,0,0,0-1-1.17,7.08,7.08,0,0,0-1.22,0h5c.3,0,.6,0,.9,0-1,.08-1.29.51-1.29,1.57v.79c-.95,0-3.3,0-5.06,0Z"/><path class="cls-2" d="M19.93,43.08c-.68,0-1.36,0-2,0Z"/><path class="cls-2" d="M19.49,40.71h0Z"/><path class="cls-4" d="M33,25.72a13.82,13.82,0,0,1,2.24-2.24A14,14,0,0,0,36.83,22a2.13,2.13,0,0,0,.51-1.41A1.78,1.78,0,0,0,36.45,19,4.67,4.67,0,0,0,34,18.41a5.92,5.92,0,0,0-3.88,1.29,1.66,1.66,0,0,1-2,0L26.47,18.6A1.62,1.62,0,0,1,26.35,16a10.82,10.82,0,0,1,2.58-1.61,13.64,13.64,0,0,1,5.74-1.14,11.63,11.63,0,0,1,6.46,1.62,5,5,0,0,1,2.47,4.46,5,5,0,0,1-.85,3,13.74,13.74,0,0,1-2.51,2.51,12.23,12.23,0,0,0-1.84,1.76,2.84,2.84,0,0,0-.38.64,1.68,1.68,0,0,1-1.52,1.08H34.26a1.62,1.62,0,0,1-1.36-2.51ZM32.45,37a3.42,3.42,0,0,1-1-2.48,3.35,3.35,0,0,1,1-2.45,4,4,0,0,1,5.37,0,3.39,3.39,0,0,1,1,2.45,3.46,3.46,0,0,1-1,2.48,4,4,0,0,1-5.37,0Z"/></g></g></svg>