<?xml version="1.0" encoding="utf-8"?>
<svg xmlns="http://www.w3.org/2000/svg" viewBox="0 0 90 90"><defs><style>.cls-1{fill:none;}.cls-2{fill:#fff;}.cls-3{fill:#8d8e8d;}.cls-4{fill:#a83540;}</style></defs><title>Anson-Search</title><g id="Calque_2" data-name="Calque 2"><g id="Calque_1-2" data-name="Calque 1"><rect class="cls-1" width="90" height="90"/></g><g id="Icons_Mainpage" data-name="Icons Mainpage"><g id="_Groupe_" data-name="&lt;Groupe&gt;"><polygon class="cls-2" points="61.4 55.18 72.25 73.67 61.02 80.26 50.16 61.77 52.55 60.36 52.74 60.25 59.01 56.57 61.4 55.18"/><path class="cls-2" d="M53,48.5l3.94,6.72-4.48,2.63-3.86-6.57A24.9,24.9,0,0,0,53,48.5Z"/><path class="cls-2" d="M38.32,51.42a21.25,21.25,0,0,1-.16-42.49h.16A21.24,21.24,0,0,1,46.6,49.74h0a20.73,20.73,0,0,1-8.09,1.67Zm12.86-29a1.12,1.12,0,0,0,.26-1.55,17.1,17.1,0,0,0-14-7.26h-.12a1.11,1.11,0,1,0,0,2.21h0a14.87,14.87,0,0,1,12.27,6.33,1.09,1.09,0,0,0,.91.48A1.11,1.11,0,0,0,51.18,22.42Z"/><path class="cls-3" d="M37.36,15.82h0a1.11,1.11,0,1,1,0-2.21h.12a17.1,17.1,0,0,1,14,7.26,1.12,1.12,0,0,1-.26,1.55,1.11,1.11,0,0,1-.64.21,1.09,1.09,0,0,1-.91-.48A14.87,14.87,0,0,0,37.36,15.82Z"/><path class="cls-3" d="M53,48.5a24.9,24.9,0,0,1-4.4,2.78l3.86,6.57,4.48-2.63Zm-.44,11.86-2.39,1.4L61,80.26l11.23-6.59L61.4,55.18,59,56.57l-6.27,3.68ZM38.32,53.64a23.47,23.47,0,0,1-.17-46.93h.17A23.46,23.46,0,0,1,54.67,47l4.18,7.1,2.37-1.39a1.1,1.1,0,0,1,1.52.4l12,20.41A1.11,1.11,0,0,1,74.33,75L61.18,82.74a1.08,1.08,0,0,1-.55.15,1.1,1.1,0,0,1-1-.55l-12-20.41a1.08,1.08,0,0,1-.12-.84,1.17,1.17,0,0,1,.51-.68L50.54,59l-4-6.81a23.33,23.33,0,0,1-8,1.48ZM17.08,30.34A21.26,21.26,0,0,0,38.32,51.42h.16a20.73,20.73,0,0,0,8.09-1.67h0A21.25,21.25,0,0,0,38.32,8.93h-.16A21.28,21.28,0,0,0,17.08,30.34Z"/></g><rect class="cls-4" x="51.83" y="53.77" width="18.65" height="27.75" rx="2.83" ry="2.83" transform="matrix(0.87, -0.5, 0.5, 0.87, -25.63, 39.64)"/></g></g></svg>